<svg xmlns="http://www.w3.org/2000/svg" xmlns:xlink="http://www.w3.org/1999/xlink" xmlns:lucid="lucid" width="682" height="600"><g transform="translate(-459 -159)" lucid:page-tab-id="0_0"><path d="M0 0h1500v1000H0z" fill="#fff"/><path d="M480 186a6 6 0 0 1 6-6h148a6 6 0 0 1 6 6v108a6 6 0 0 1-6 6H486a6 6 0 0 1-6-6z" stroke="#282c33" stroke-width="2" fill="#fff"/><use xlink:href="#a" transform="matrix(1,0,0,1,492,192) translate(43.98765432098766 53.77777777777778)"/><path d="M860 240c0 33.14-35.82 60-80 60s-80-26.86-80-60 35.82-60 80-60 80 26.86 80 60z" stroke="#282c33" stroke-width="2" fill="#fff"/><use xlink:href="#b" transform="matrix(1,0,0,1,705,185) translate(12.870370370370352 59.02777777777778)"/><path d="M1120 240c0 33.14-44.77 60-100 60s-100-26.86-100-60 44.77-60 100-60 100 26.86 100 60z" stroke="#282c33" stroke-width="2" fill="#fff"/><use xlink:href="#c" transform="matrix(1,0,0,1,925,185) translate(8.796296296296305 59.02777777777778)"/><path d="M641.5 240h41.12" stroke="#3a414a" fill="none"/><path d="M641.5 240.47h-.5v-.94h.5z" stroke="#3a414a" stroke-width=".05" fill="#3a414a"/><path d="M697.38 240l-14.26 4.63v-9.26z" stroke="#3a414a" fill="#3a414a"/><path d="M861.5 240h41.12" stroke="#3a414a" fill="none"/><path d="M861.5 240.47h-.5V239.54h.5z" stroke="#3a414a" stroke-width=".05" fill="#3a414a"/><path d="M917.38 240l-14.26 4.63v-9.26z" stroke="#3a414a" fill="#3a414a"/><path d="M480 486a6 6 0 0 1 6-6h148a6 6 0 0 1 6 6v108a6 6 0 0 1-6 6H486a6 6 0 0 1-6-6z" stroke="#282c33" stroke-width="2" fill="#fff"/><use xlink:href="#a" transform="matrix(1,0,0,1,492,492) translate(43.98765432098766 53.77777777777778)"/><path d="M860 540c0 33.14-35.82 60-80 60s-80-26.86-80-60 35.82-60 80-60 80 26.86 80 60z" stroke="#282c33" stroke-width="2" fill="#fff"/><use xlink:href="#b" transform="matrix(1,0,0,1,705,485) translate(12.870370370370352 59.02777777777778)"/><path d="M1120 540c0 33.14-44.77 60-100 60s-100-26.86-100-60 44.77-60 100-60 100 26.86 100 60z" stroke="#282c33" stroke-width="2" fill="#fff"/><use xlink:href="#c" transform="matrix(1,0,0,1,925,485) translate(8.796296296296305 59.02777777777778)"/><path d="M641.5 540h41.12" stroke="#3a414a" fill="none"/><path d="M641.5 540.48h-.5v-.96h.5z" stroke="#3a414a" stroke-width=".05" fill="#3a414a"/><path d="M697.38 540l-14.26 4.63v-9.26z" stroke="#3a414a" fill="#3a414a"/><path d="M861.5 540h41.12" stroke="#3a414a" fill="none"/><path d="M861.5 540.48h-.5v-.95h.5z" stroke="#3a414a" stroke-width=".05" fill="#3a414a"/><path d="M917.38 540l-14.26 4.63v-9.26z" stroke="#3a414a" fill="#3a414a"/><path d="M560 601.5V635a6 6 0 0 0 6 6h448a6 6 0 0 0 6-6v-17.62" stroke="#3a414a" fill="none"/><path d="M560.48 601.5h-.96v-.5h.96z" stroke="#3a414a" stroke-width=".05" fill="#3a414a"/><path d="M1020 602.62l4.64 14.26h-9.27z" stroke="#3a414a" fill="#3a414a"/><path d="M480 346a6 6 0 0 1 6-6h548a6 6 0 0 1 6 6v48a6 6 0 0 1-6 6H486a6 6 0 0 1-6-6z" fill="none"/><use xlink:href="#d" transform="matrix(1,0,0,1,480,340) translate(4.320987654321016 21.111111111111114)"/><use xlink:href="#e" transform="matrix(1,0,0,1,480,340) translate(75.86419753086422 21.111111111111114)"/><use xlink:href="#f" transform="matrix(1,0,0,1,480,340) translate(103.02469135802471 21.111111111111114)"/><use xlink:href="#g" transform="matrix(1,0,0,1,480,340) translate(157.3456790123457 21.111111111111114)"/><use xlink:href="#h" transform="matrix(1,0,0,1,480,340) translate(381.66666666666663 21.111111111111114)"/><use xlink:href="#i" transform="matrix(1,0,0,1,480,340) translate(412.53086419753083 21.111111111111114)"/><use xlink:href="#j" transform="matrix(1,0,0,1,480,340) translate(518.6419753086419 21.111111111111114)"/><use xlink:href="#k" transform="matrix(1,0,0,1,480,340) translate(63.580246913580226 47.777777777777786)"/><use xlink:href="#l" transform="matrix(1,0,0,1,480,340) translate(117.16049382716048 47.777777777777786)"/><use xlink:href="#m" transform="matrix(1,0,0,1,480,340) translate(193.58024691358023 47.777777777777786)"/><use xlink:href="#n" transform="matrix(1,0,0,1,480,340) translate(366.9135802469136 47.777777777777786)"/><use xlink:href="#o" transform="matrix(1,0,0,1,480,340) translate(390.30864197530866 47.777777777777786)"/><use xlink:href="#p" transform="matrix(1,0,0,1,480,340) translate(427.3456790123457 47.777777777777786)"/><path d="M480 685a6 6 0 0 1 6-6h548a6 6 0 0 1 6 6v48a6 6 0 0 1-6 6H486a6 6 0 0 1-6-6z" fill="none"/><g><use xlink:href="#d" transform="matrix(1,0,0,1,480,679) translate(6.851851851851848 21.111111111111114)"/><use xlink:href="#q" transform="matrix(1,0,0,1,480,679) translate(78.39506172839505 21.111111111111114)"/><use xlink:href="#r" transform="matrix(1,0,0,1,480,679) translate(105.55555555555554 21.111111111111114)"/><use xlink:href="#g" transform="matrix(1,0,0,1,480,679) translate(165.98765432098764 21.111111111111114)"/><use xlink:href="#s" transform="matrix(1,0,0,1,480,679) translate(390.3086419753086 21.111111111111114)"/><use xlink:href="#t" transform="matrix(1,0,0,1,480,679) translate(408.82716049382714 21.111111111111114)"/><use xlink:href="#j" transform="matrix(1,0,0,1,480,679) translate(516.1111111111111 21.111111111111114)"/><use xlink:href="#l" transform="matrix(1,0,0,1,480,679) translate(90.37037037037035 47.777777777777786)"/><use xlink:href="#m" transform="matrix(1,0,0,1,480,679) translate(166.7901234567901 47.777777777777786)"/><use xlink:href="#n" transform="matrix(1,0,0,1,480,679) translate(340.12345679012344 47.777777777777786)"/><use xlink:href="#o" transform="matrix(1,0,0,1,480,679) translate(363.5185185185185 47.777777777777786)"/><use xlink:href="#u" transform="matrix(1,0,0,1,480,679) translate(400.55555555555554 47.777777777777786)"/></g><defs><path fill="#3a414a" d="M210-169c-67 3-38 105-44 169h-31v-121c0-29-5-50-35-48C34-165 62-65 56 0H25l-1-190h30c1 10-1 24 2 32 10-44 99-50 107 0 11-21 27-35 58-36 85-2 47 119 55 194h-31v-121c0-29-5-49-35-48" id="v"/><path fill="#3a414a" d="M141-36C126-15 110 5 73 4 37 3 15-17 15-53c-1-64 63-63 125-63 3-35-9-54-41-54-24 1-41 7-42 31l-33-3c5-37 33-52 76-52 45 0 72 20 72 64v82c-1 20 7 32 28 27v20c-31 9-61-2-59-35zM48-53c0 20 12 33 32 33 41-3 63-29 60-74-43 2-92-5-92 41" id="w"/><path fill="#3a414a" d="M24-231v-30h32v30H24zM24 0v-190h32V0H24" id="x"/><path fill="#3a414a" d="M117-194c89-4 53 116 60 194h-32v-121c0-31-8-49-39-48C34-167 62-67 57 0H25l-1-190h30c1 10-1 24 2 32 11-22 29-35 61-36" id="y"/><g id="a"><use transform="matrix(0.06172839506172839,0,0,0.06172839506172839,0,0)" xlink:href="#v"/><use transform="matrix(0.06172839506172839,0,0,0.06172839506172839,18.456790123456788,0)" xlink:href="#w"/><use transform="matrix(0.06172839506172839,0,0,0.06172839506172839,30.80246913580247,0)" xlink:href="#x"/><use transform="matrix(0.06172839506172839,0,0,0.06172839506172839,35.67901234567901,0)" xlink:href="#y"/></g><path fill="#3a414a" d="M24 0v-261h32V0H24" id="z"/><path fill="#3a414a" d="M115-194c53 0 69 39 70 98 0 66-23 100-70 100C84 3 66-7 56-30L54 0H23l1-261h32v101c10-23 28-34 59-34zm-8 174c40 0 45-34 45-75 0-40-5-75-45-74-42 0-51 32-51 76 0 43 10 73 51 73" id="A"/><path fill="#3a414a" d="M179-190L93 31C79 59 56 82 12 73V49c39 6 53-20 64-50L1-190h34L92-34l54-156h33" id="B"/><path fill="#3a414a" d="M-5 72V49h209v23H-5" id="C"/><path fill="#3a414a" d="M114-163C36-179 61-72 57 0H25l-1-190h30c1 12-1 29 2 39 6-27 23-49 58-41v29" id="D"/><g id="b"><use transform="matrix(0.06172839506172839,0,0,0.06172839506172839,0,0)" xlink:href="#z"/><use transform="matrix(0.06172839506172839,0,0,0.06172839506172839,4.876543209876543,0)" xlink:href="#x"/><use transform="matrix(0.06172839506172839,0,0,0.06172839506172839,9.753086419753085,0)" xlink:href="#A"/><use transform="matrix(0.06172839506172839,0,0,0.06172839506172839,22.098765432098766,0)" xlink:href="#v"/><use transform="matrix(0.06172839506172839,0,0,0.06172839506172839,40.55555555555556,0)" xlink:href="#B"/><use transform="matrix(0.06172839506172839,0,0,0.06172839506172839,51.66666666666667,0)" xlink:href="#C"/><use transform="matrix(0.06172839506172839,0,0,0.06172839506172839,64.01234567901236,0)" xlink:href="#z"/><use transform="matrix(0.06172839506172839,0,0,0.06172839506172839,68.8888888888889,0)" xlink:href="#x"/><use transform="matrix(0.06172839506172839,0,0,0.06172839506172839,73.76543209876544,0)" xlink:href="#A"/><use transform="matrix(0.06172839506172839,0,0,0.06172839506172839,86.11111111111113,0)" xlink:href="#D"/><use transform="matrix(0.06172839506172839,0,0,0.06172839506172839,93.45679012345681,0)" xlink:href="#w"/><use transform="matrix(0.06172839506172839,0,0,0.06172839506172839,105.8024691358025,0)" xlink:href="#D"/><use transform="matrix(0.06172839506172839,0,0,0.06172839506172839,113.14814814814818,0)" xlink:href="#B"/></g><path fill="#3a414a" d="M135-143c-3-34-86-38-87 0 15 53 115 12 119 90S17 21 10-45l28-5c4 36 97 45 98 0-10-56-113-15-118-90-4-57 82-63 122-42 12 7 21 19 24 35" id="E"/><path fill="#3a414a" d="M100-194c62-1 85 37 85 99 1 63-27 99-86 99S16-35 15-95c0-66 28-99 85-99zM99-20c44 1 53-31 53-75 0-43-8-75-51-75s-53 32-53 75 10 74 51 75" id="F"/><path fill="#3a414a" d="M100-194c63 0 86 42 84 106H49c0 40 14 67 53 68 26 1 43-12 49-29l28 8c-11 28-37 45-77 45C44 4 14-33 15-96c1-61 26-98 85-98zm52 81c6-60-76-77-97-28-3 7-6 17-6 28h103" id="G"/><path fill="#3a414a" d="M96-169c-40 0-48 33-48 73s9 75 48 75c24 0 41-14 43-38l32 2c-6 37-31 61-74 61-59 0-76-41-82-99-10-93 101-131 147-64 4 7 5 14 7 22l-32 3c-4-21-16-35-41-35" id="H"/><g id="c"><use transform="matrix(0.06172839506172839,0,0,0.06172839506172839,0,0)" xlink:href="#z"/><use transform="matrix(0.06172839506172839,0,0,0.06172839506172839,4.876543209876543,0)" xlink:href="#x"/><use transform="matrix(0.06172839506172839,0,0,0.06172839506172839,9.753086419753085,0)" xlink:href="#A"/><use transform="matrix(0.06172839506172839,0,0,0.06172839506172839,22.098765432098766,0)" xlink:href="#E"/><use transform="matrix(0.06172839506172839,0,0,0.06172839506172839,33.20987654320987,0)" xlink:href="#F"/><use transform="matrix(0.06172839506172839,0,0,0.06172839506172839,45.55555555555555,0)" xlink:href="#v"/><use transform="matrix(0.06172839506172839,0,0,0.06172839506172839,64.01234567901234,0)" xlink:href="#G"/><use transform="matrix(0.06172839506172839,0,0,0.06172839506172839,76.35802469135803,0)" xlink:href="#C"/><use transform="matrix(0.06172839506172839,0,0,0.06172839506172839,88.70370370370371,0)" xlink:href="#H"/><use transform="matrix(0.06172839506172839,0,0,0.06172839506172839,99.81481481481482,0)" xlink:href="#C"/><use transform="matrix(0.06172839506172839,0,0,0.06172839506172839,112.16049382716051,0)" xlink:href="#z"/><use transform="matrix(0.06172839506172839,0,0,0.06172839506172839,117.03703703703705,0)" xlink:href="#x"/><use transform="matrix(0.06172839506172839,0,0,0.06172839506172839,121.9135802469136,0)" xlink:href="#A"/><use transform="matrix(0.06172839506172839,0,0,0.06172839506172839,134.25925925925927,0)" xlink:href="#D"/><use transform="matrix(0.06172839506172839,0,0,0.06172839506172839,141.60493827160494,0)" xlink:href="#w"/><use transform="matrix(0.06172839506172839,0,0,0.06172839506172839,153.9506172839506,0)" xlink:href="#D"/><use transform="matrix(0.06172839506172839,0,0,0.06172839506172839,161.29629629629628,0)" xlink:href="#B"/></g><path fill="#3a414a" d="M140-251c81 0 123 46 123 126C263-46 219 4 140 4 59 4 17-45 17-125s42-126 123-126zm0 227c63 0 89-41 89-101s-29-99-89-99c-61 0-89 39-89 99S79-25 140-24" id="I"/><path fill="#3a414a" d="M115-194c55 1 70 41 70 98S169 2 115 4C84 4 66-9 55-30l1 105H24l-1-265h31l2 30c10-21 28-34 59-34zm-8 174c40 0 45-34 45-75s-6-73-45-74c-42 0-51 32-51 76 0 43 10 73 51 73" id="J"/><path fill="#3a414a" d="M59-47c-2 24 18 29 38 22v24C64 9 27 4 27-40v-127H5v-23h24l9-43h21v43h35v23H59v120" id="K"/><g id="d"><use transform="matrix(0.06172839506172839,0,0,0.06172839506172839,0,0)" xlink:href="#I"/><use transform="matrix(0.06172839506172839,0,0,0.06172839506172839,17.28395061728395,0)" xlink:href="#J"/><use transform="matrix(0.06172839506172839,0,0,0.06172839506172839,29.629629629629626,0)" xlink:href="#K"/><use transform="matrix(0.06172839506172839,0,0,0.06172839506172839,35.80246913580247,0)" xlink:href="#x"/><use transform="matrix(0.06172839506172839,0,0,0.06172839506172839,40.67901234567901,0)" xlink:href="#F"/><use transform="matrix(0.06172839506172839,0,0,0.06172839506172839,53.02469135802469,0)" xlink:href="#y"/></g><path fill="#3a414a" d="M205 0l-28-72H64L36 0H1l101-248h38L239 0h-34zm-38-99l-47-123c-12 45-31 82-46 123h93" id="L"/><path fill="#3a414a" d="M33-154v-36h34v36H33zM33 0v-36h34V0H33" id="M"/><g id="e"><use transform="matrix(0.06172839506172839,0,0,0.06172839506172839,0,0)" xlink:href="#L"/><use transform="matrix(0.06172839506172839,0,0,0.06172839506172839,14.814814814814813,0)" xlink:href="#M"/></g><path fill="#3a414a" d="M143 0L79-87 56-68V0H24v-261h32v163l83-92h37l-77 82L181 0h-38" id="N"/><g id="f"><use transform="matrix(0.06172839506172839,0,0,0.06172839506172839,0,0)" xlink:href="#N"/><use transform="matrix(0.06172839506172839,0,0,0.06172839506172839,11.11111111111111,0)" xlink:href="#G"/><use transform="matrix(0.06172839506172839,0,0,0.06172839506172839,23.45679012345679,0)" xlink:href="#G"/><use transform="matrix(0.06172839506172839,0,0,0.06172839506172839,35.80246913580247,0)" xlink:href="#J"/></g><path fill="#3a414a" d="M185-189c-5-48-123-54-124 2 14 75 158 14 163 119 3 78-121 87-175 55-17-10-28-26-33-46l33-7c5 56 141 63 141-1 0-78-155-14-162-118-5-82 145-84 179-34 5 7 8 16 11 25" id="O"/><path fill="#3a414a" d="M212-179c-10-28-35-45-73-45-59 0-87 40-87 99 0 60 29 101 89 101 43 0 62-24 78-52l27 14C228-24 195 4 139 4 59 4 22-46 18-125c-6-104 99-153 187-111 19 9 31 26 39 46" id="P"/><path fill="#3a414a" d="M30 0v-248h33v221h125V0H30" id="Q"/><path fill="#3a414a" d="M141 0L90-78 38 0H4l68-98-65-92h35l48 74 47-74h35l-64 92 68 98h-35" id="R"/><g id="g"><use transform="matrix(0.06172839506172839,0,0,0.06172839506172839,0,0)" xlink:href="#O"/><use transform="matrix(0.06172839506172839,0,0,0.06172839506172839,14.814814814814813,0)" xlink:href="#F"/><use transform="matrix(0.06172839506172839,0,0,0.06172839506172839,27.160493827160494,0)" xlink:href="#v"/><use transform="matrix(0.06172839506172839,0,0,0.06172839506172839,45.61728395061728,0)" xlink:href="#G"/><use transform="matrix(0.06172839506172839,0,0,0.06172839506172839,57.962962962962955,0)" xlink:href="#P"/><use transform="matrix(0.06172839506172839,0,0,0.06172839506172839,73.9506172839506,0)" xlink:href="#Q"/><use transform="matrix(0.06172839506172839,0,0,0.06172839506172839,86.29629629629629,0)" xlink:href="#x"/><use transform="matrix(0.06172839506172839,0,0,0.06172839506172839,91.17283950617283,0)" xlink:href="#A"/><use transform="matrix(0.06172839506172839,0,0,0.06172839506172839,103.51851851851852,0)" xlink:href="#D"/><use transform="matrix(0.06172839506172839,0,0,0.06172839506172839,110.8641975308642,0)" xlink:href="#w"/><use transform="matrix(0.06172839506172839,0,0,0.06172839506172839,123.20987654320989,0)" xlink:href="#D"/><use transform="matrix(0.06172839506172839,0,0,0.06172839506172839,130.55555555555557,0)" xlink:href="#B"/><use transform="matrix(0.06172839506172839,0,0,0.06172839506172839,141.66666666666669,0)" xlink:href="#P"/><use transform="matrix(0.06172839506172839,0,0,0.06172839506172839,157.65432098765433,0)" xlink:href="#F"/><use transform="matrix(0.06172839506172839,0,0,0.06172839506172839,170,0)" xlink:href="#y"/><use transform="matrix(0.06172839506172839,0,0,0.06172839506172839,182.34567901234567,0)" xlink:href="#K"/><use transform="matrix(0.06172839506172839,0,0,0.06172839506172839,188.5185185185185,0)" xlink:href="#G"/><use transform="matrix(0.06172839506172839,0,0,0.06172839506172839,200.86419753086417,0)" xlink:href="#R"/><use transform="matrix(0.06172839506172839,0,0,0.06172839506172839,211.9753086419753,0)" xlink:href="#K"/></g><g id="h"><use transform="matrix(0.06172839506172839,0,0,0.06172839506172839,0,0)" xlink:href="#w"/><use transform="matrix(0.06172839506172839,0,0,0.06172839506172839,12.345679012345679,0)" xlink:href="#y"/></g><path fill="#3a414a" d="M177-190C167-65 218 103 67 71c-23-6-38-20-44-43l32-5c15 47 100 32 89-28v-30C133-14 115 1 83 1 29 1 15-40 15-95c0-56 16-97 71-98 29-1 48 16 59 35 1-10 0-23 2-32h30zM94-22c36 0 50-32 50-73 0-42-14-75-50-75-39 0-46 34-46 75s6 73 46 73" id="S"/><g id="i"><use transform="matrix(0.06172839506172839,0,0,0.06172839506172839,0,0)" xlink:href="#w"/><use transform="matrix(0.06172839506172839,0,0,0.06172839506172839,12.345679012345679,0)" xlink:href="#S"/><use transform="matrix(0.06172839506172839,0,0,0.06172839506172839,24.691358024691358,0)" xlink:href="#S"/><use transform="matrix(0.06172839506172839,0,0,0.06172839506172839,37.03703703703704,0)" xlink:href="#D"/><use transform="matrix(0.06172839506172839,0,0,0.06172839506172839,44.382716049382715,0)" xlink:href="#G"/><use transform="matrix(0.06172839506172839,0,0,0.06172839506172839,56.72839506172839,0)" xlink:href="#S"/><use transform="matrix(0.06172839506172839,0,0,0.06172839506172839,69.07407407407408,0)" xlink:href="#w"/><use transform="matrix(0.06172839506172839,0,0,0.06172839506172839,81.41975308641976,0)" xlink:href="#K"/><use transform="matrix(0.06172839506172839,0,0,0.06172839506172839,87.5925925925926,0)" xlink:href="#G"/></g><path fill="#3a414a" d="M85-194c31 0 48 13 60 33l-1-100h32l1 261h-30c-2-10 0-23-3-31C134-8 116 4 85 4 32 4 16-35 15-94c0-66 23-100 70-100zm9 24c-40 0-46 34-46 75 0 40 6 74 45 74 42 0 51-32 51-76 0-42-9-74-50-73" id="T"/><g id="j"><use transform="matrix(0.06172839506172839,0,0,0.06172839506172839,0,0)" xlink:href="#w"/><use transform="matrix(0.06172839506172839,0,0,0.06172839506172839,12.345679012345679,0)" xlink:href="#y"/><use transform="matrix(0.06172839506172839,0,0,0.06172839506172839,24.691358024691358,0)" xlink:href="#T"/></g><path fill="#3a414a" d="M47-170H22l-4-78h33" id="U"/><g id="k"><use transform="matrix(0.06172839506172839,0,0,0.06172839506172839,0,0)" xlink:href="#T"/><use transform="matrix(0.06172839506172839,0,0,0.06172839506172839,12.345679012345679,0)" xlink:href="#F"/><use transform="matrix(0.06172839506172839,0,0,0.06172839506172839,24.691358024691358,0)" xlink:href="#y"/><use transform="matrix(0.06172839506172839,0,0,0.06172839506172839,37.03703703703704,0)" xlink:href="#U"/><use transform="matrix(0.06172839506172839,0,0,0.06172839506172839,41.23456790123457,0)" xlink:href="#K"/></g><path fill="#3a414a" d="M84 4C-5 8 30-112 23-190h32v120c0 31 7 50 39 49 72-2 45-101 50-169h31l1 190h-30c-1-10 1-25-2-33-11 22-28 36-60 37" id="V"/><g id="l"><use transform="matrix(0.06172839506172839,0,0,0.06172839506172839,0,0)" xlink:href="#x"/><use transform="matrix(0.06172839506172839,0,0,0.06172839506172839,4.876543209876543,0)" xlink:href="#y"/><use transform="matrix(0.06172839506172839,0,0,0.06172839506172839,17.22222222222222,0)" xlink:href="#H"/><use transform="matrix(0.06172839506172839,0,0,0.06172839506172839,28.333333333333332,0)" xlink:href="#z"/><use transform="matrix(0.06172839506172839,0,0,0.06172839506172839,33.20987654320987,0)" xlink:href="#V"/><use transform="matrix(0.06172839506172839,0,0,0.06172839506172839,45.55555555555555,0)" xlink:href="#T"/><use transform="matrix(0.06172839506172839,0,0,0.06172839506172839,57.90123456790123,0)" xlink:href="#G"/></g><path fill="#3a414a" d="M33 0v-38h34V0H33" id="W"/><path fill="#3a414a" d="M106-169C34-169 62-67 57 0H25v-261h32l-1 103c12-21 28-36 61-36 89 0 53 116 60 194h-32v-121c2-32-8-49-39-48" id="X"/><g id="m"><use transform="matrix(0.06172839506172839,0,0,0.06172839506172839,0,0)" xlink:href="#E"/><use transform="matrix(0.06172839506172839,0,0,0.06172839506172839,11.11111111111111,0)" xlink:href="#F"/><use transform="matrix(0.06172839506172839,0,0,0.06172839506172839,23.45679012345679,0)" xlink:href="#v"/><use transform="matrix(0.06172839506172839,0,0,0.06172839506172839,41.91358024691358,0)" xlink:href="#G"/><use transform="matrix(0.06172839506172839,0,0,0.06172839506172839,54.25925925925926,0)" xlink:href="#C"/><use transform="matrix(0.06172839506172839,0,0,0.06172839506172839,66.60493827160494,0)" xlink:href="#H"/><use transform="matrix(0.06172839506172839,0,0,0.06172839506172839,77.71604938271605,0)" xlink:href="#C"/><use transform="matrix(0.06172839506172839,0,0,0.06172839506172839,90.06172839506173,0)" xlink:href="#z"/><use transform="matrix(0.06172839506172839,0,0,0.06172839506172839,94.93827160493828,0)" xlink:href="#x"/><use transform="matrix(0.06172839506172839,0,0,0.06172839506172839,99.81481481481482,0)" xlink:href="#A"/><use transform="matrix(0.06172839506172839,0,0,0.06172839506172839,112.16049382716051,0)" xlink:href="#D"/><use transform="matrix(0.06172839506172839,0,0,0.06172839506172839,119.50617283950619,0)" xlink:href="#w"/><use transform="matrix(0.06172839506172839,0,0,0.06172839506172839,131.85185185185188,0)" xlink:href="#D"/><use transform="matrix(0.06172839506172839,0,0,0.06172839506172839,139.19753086419755,0)" xlink:href="#B"/><use transform="matrix(0.06172839506172839,0,0,0.06172839506172839,148.641975308642,0)" xlink:href="#W"/><use transform="matrix(0.06172839506172839,0,0,0.06172839506172839,154.81481481481484,0)" xlink:href="#X"/></g><g id="n"><use transform="matrix(0.06172839506172839,0,0,0.06172839506172839,0,0)" xlink:href="#x"/><use transform="matrix(0.06172839506172839,0,0,0.06172839506172839,4.876543209876543,0)" xlink:href="#y"/></g><g id="o"><use transform="matrix(0.06172839506172839,0,0,0.06172839506172839,0,0)" xlink:href="#K"/><use transform="matrix(0.06172839506172839,0,0,0.06172839506172839,6.172839506172839,0)" xlink:href="#X"/><use transform="matrix(0.06172839506172839,0,0,0.06172839506172839,18.51851851851852,0)" xlink:href="#G"/></g><g id="p"><use transform="matrix(0.06172839506172839,0,0,0.06172839506172839,0,0)" xlink:href="#X"/><use transform="matrix(0.06172839506172839,0,0,0.06172839506172839,12.345679012345679,0)" xlink:href="#G"/><use transform="matrix(0.06172839506172839,0,0,0.06172839506172839,24.691358024691358,0)" xlink:href="#w"/><use transform="matrix(0.06172839506172839,0,0,0.06172839506172839,37.03703703703704,0)" xlink:href="#T"/><use transform="matrix(0.06172839506172839,0,0,0.06172839506172839,49.382716049382715,0)" xlink:href="#G"/><use transform="matrix(0.06172839506172839,0,0,0.06172839506172839,61.72839506172839,0)" xlink:href="#D"/></g><path fill="#3a414a" d="M160-131c35 5 61 23 61 61C221 17 115-2 30 0v-248c76 3 177-17 177 60 0 33-19 50-47 57zm-97-11c50-1 110 9 110-42 0-47-63-36-110-37v79zm0 115c55-2 124 14 124-45 0-56-70-42-124-44v89" id="Y"/><g id="q"><use transform="matrix(0.06172839506172839,0,0,0.06172839506172839,0,0)" xlink:href="#Y"/><use transform="matrix(0.06172839506172839,0,0,0.06172839506172839,14.814814814814813,0)" xlink:href="#M"/></g><g id="r"><use transform="matrix(0.06172839506172839,0,0,0.06172839506172839,0,0)" xlink:href="#v"/><use transform="matrix(0.06172839506172839,0,0,0.06172839506172839,18.456790123456788,0)" xlink:href="#w"/><use transform="matrix(0.06172839506172839,0,0,0.06172839506172839,30.80246913580247,0)" xlink:href="#N"/><use transform="matrix(0.06172839506172839,0,0,0.06172839506172839,41.91358024691358,0)" xlink:href="#G"/></g><use transform="matrix(0.06172839506172839,0,0,0.06172839506172839,0,0)" xlink:href="#w" id="s"/><g id="t"><use transform="matrix(0.06172839506172839,0,0,0.06172839506172839,0,0)" xlink:href="#H"/><use transform="matrix(0.06172839506172839,0,0,0.06172839506172839,11.11111111111111,0)" xlink:href="#F"/><use transform="matrix(0.06172839506172839,0,0,0.06172839506172839,23.45679012345679,0)" xlink:href="#v"/><use transform="matrix(0.06172839506172839,0,0,0.06172839506172839,41.91358024691358,0)" xlink:href="#J"/><use transform="matrix(0.06172839506172839,0,0,0.06172839506172839,54.25925925925926,0)" xlink:href="#F"/><use transform="matrix(0.06172839506172839,0,0,0.06172839506172839,66.60493827160494,0)" xlink:href="#E"/><use transform="matrix(0.06172839506172839,0,0,0.06172839506172839,77.71604938271605,0)" xlink:href="#x"/><use transform="matrix(0.06172839506172839,0,0,0.06172839506172839,82.5925925925926,0)" xlink:href="#K"/><use transform="matrix(0.06172839506172839,0,0,0.06172839506172839,88.76543209876543,0)" xlink:href="#G"/></g><g id="u"><use transform="matrix(0.06172839506172839,0,0,0.06172839506172839,0,0)" xlink:href="#X"/><use transform="matrix(0.06172839506172839,0,0,0.06172839506172839,12.345679012345679,0)" xlink:href="#G"/><use transform="matrix(0.06172839506172839,0,0,0.06172839506172839,24.691358024691358,0)" xlink:href="#w"/><use transform="matrix(0.06172839506172839,0,0,0.06172839506172839,37.03703703703704,0)" xlink:href="#T"/><use transform="matrix(0.06172839506172839,0,0,0.06172839506172839,49.382716049382715,0)" xlink:href="#G"/><use transform="matrix(0.06172839506172839,0,0,0.06172839506172839,61.72839506172839,0)" xlink:href="#D"/></g></defs></g></svg>